<svg xmlns="http://www.w3.org/2000/svg" viewBox="0 0 30.65 28.37"><defs><style>.cls-1{fill:#e17726;stroke:#e17726;}.cls-1,.cls-10,.cls-2,.cls-3,.cls-4,.cls-5,.cls-6,.cls-7,.cls-8,.cls-9{stroke-linecap:round;stroke-linejoin:round;stroke-width:0.25px;}.cls-2{fill:#e27625;stroke:#e27625;}.cls-3{fill:#d5bfb2;stroke:#d5bfb2;}.cls-4{fill:#233447;stroke:#233447;}.cls-5{fill:#cc6228;stroke:#cc6228;}.cls-6{fill:#e27525;stroke:#e27525;}.cls-7{fill:#f5841f;stroke:#f5841f;}.cls-8{fill:#c0ac9d;stroke:#c0ac9d;}.cls-9{fill:#161616;stroke:#161616;}.cls-10{fill:#763e1a;stroke:#763e1a;}</style></defs><title>Metamask</title><g id="图层_2" data-name="图层 2"><g id="图层_1-2" data-name="图层 1"><path class="cls-1" d="M29,.12,17.14,8.91l2.21-5.18Z"/><path class="cls-2" d="M1.63.12,13.4,9,11.29,3.73Z"/><path class="cls-2" d="M24.74,20.5l-3.16,4.82,6.77,1.87,1.94-6.59Z"/><path class="cls-2" d="M.37,20.6,2.3,27.19l6.75-1.87L5.9,20.5Z"/><path class="cls-2" d="M8.69,12.34,6.81,15.18l6.69.3-.22-7.2Z"/><path class="cls-2" d="M22,12.34,17.3,8.2l-.16,7.28,6.7-.3Z"/><path class="cls-2" d="M9.05,25.32l4-1.95L9.62,20.65Z"/><path class="cls-2" d="M17.54,23.37l4,1.95L21,20.65Z"/><path class="cls-3" d="M21.58,25.32l-4-1.95L17.87,26l0,1.11Z"/><path class="cls-3" d="M9.05,25.32l3.76,1.78,0-1.11.31-2.62Z"/><path class="cls-4" d="M12.88,18.92l-3.36-1,2.37-1.09Z"/><path class="cls-4" d="M17.77,18.92l1-2.08,2.39,1.09Z"/><path class="cls-5" d="M9.05,25.32l.59-4.82-3.74.1Z"/><path class="cls-5" d="M21,20.5l.57,4.82,3.16-4.72Z"/><path class="cls-5" d="M23.84,15.18l-6.7.3.63,3.44,1-2.08,2.39,1.09Z"/><path class="cls-5" d="M9.52,17.93l2.37-1.09,1,2.08.62-3.44-6.69-.3Z"/><path class="cls-6" d="M6.81,15.18l2.81,5.47-.1-2.72Z"/><path class="cls-6" d="M21.14,17.93,21,20.65l2.81-5.47Z"/><path class="cls-6" d="M13.5,15.48l-.62,3.44.79,4,.17-5.34Z"/><path class="cls-6" d="M17.14,15.48l-.32,2.14L17,23l.79-4Z"/><path class="cls-7" d="M17.77,18.92,17,23l.56.4L21,20.65l.11-2.72Z"/><path class="cls-7" d="M9.52,17.93l.1,2.72,3.48,2.72.57-.4-.79-4Z"/><path class="cls-8" d="M17.84,27.1l0-1.11-.3-.26H13.08l-.29.26,0,1.11L9.05,25.32l1.32,1.08L13,28.24H17.6l2.68-1.84,1.3-1.08Z"/><path class="cls-9" d="M17.54,23.37,17,23H13.67l-.57.4L12.79,26l.29-.26h4.49l.3.26Z"/><path class="cls-10" d="M29.52,9.49l1-4.85L29,.12,17.54,8.62,22,12.34l6.24,1.82,1.37-1.61-.6-.43,1-.87-.73-.56,1-.72Z"/><path class="cls-10" d="M.12,4.64l1,4.85L.49,10l1,.72-.73.56,1,.87-.6.43,1.37,1.61,6.24-1.82L13.1,8.62,1.63.12Z"/><path class="cls-7" d="M28.2,14.16,22,12.34l1.88,2.84L21,20.65l3.71,0h5.55Z"/><path class="cls-7" d="M8.69,12.34,2.45,14.16.37,20.6H5.9l3.72,0L6.81,15.18Z"/><path class="cls-7" d="M17.14,15.48l.4-6.86,1.81-4.89H11.29L13.1,8.62l.4,6.86.16,2.16V23H17V17.64Z"/></g></g></svg>